<svg width="35" height="24" viewBox="0 0 35 24" fill="none" xmlns="http://www.w3.org/2000/svg">
<path d="M16.1218 3.02232C12.5168 0.318406 6.68474 0.305266 3.0954 2.99749C-0.493948 5.68971 -0.476429 10.0641 3.1285 12.768L16.4731 22.7773C17.0266 23.1924 17.924 23.1924 18.4776 22.7773L31.7528 12.8259C35.3338 10.125 35.3225 5.76279 31.7169 3.0584C28.1055 0.349637 22.2707 0.336495 18.6749 3.03353L17.407 3.98635L16.1218 3.02232Z" fill="white"/>
<path d="M16.1218 3.02232C12.5168 0.318406 6.68474 0.305266 3.0954 2.99749C-0.493948 5.68971 -0.476429 10.0641 3.1285 12.768L16.4731 22.7773C17.0266 23.1924 17.924 23.1924 18.4776 22.7773L31.7528 12.8259C35.3338 10.125 35.3225 5.76279 31.7169 3.0584C28.1055 0.349637 22.2707 0.336495 18.6749 3.03353L17.407 3.98635L16.1218 3.02232Z" fill="white"/>
</svg>
