<svg width="57" height="47" viewBox="0 0 57 47" fill="none" xmlns="http://www.w3.org/2000/svg">
<path d="M0.591074 23.0135C0.37801 23.1892 0.415479 23.4086 0.674762 23.5036C0.934044 23.5986 1.31696 23.5332 1.53002 23.3576L0.591074 23.0135ZM1.53002 23.3576L28.8801 0.808041L27.9411 0.463978L0.591074 23.0135L1.53002 23.3576Z" fill="white"/>
<path d="M28.8792 0.683707C28.6661 0.508041 28.2832 0.442656 28.0239 0.537667C27.7646 0.632677 27.7272 0.852104 27.9402 1.02777L28.8792 0.683707ZM56.2292 23.2332L28.8792 0.683707L27.9402 1.02777L55.2903 23.5773L56.2292 23.2332Z" fill="white"/>
<path d="M14.8865 23.2709C14.753 23.5126 14.8656 23.7454 15.138 23.7908C15.4103 23.8363 15.7394 23.6772 15.8729 23.4354L14.8865 23.2709ZM27.1221 1.11693L14.8865 23.2709L15.8729 23.4354L28.1084 1.28151L27.1221 1.11693Z" fill="white"/>
<path d="M15.8945 23.2954C15.8945 23.0193 15.6707 22.7954 15.3945 22.7954C15.1184 22.7954 14.8945 23.0193 14.8945 23.2954H15.8945ZM14.8945 23.2954L14.8945 46.6362H15.8945L15.8945 23.2954H14.8945Z" fill="white"/>
<path d="M1.49998 23.2873C1.49147 23.0113 1.26072 22.7897 0.984589 22.7922C0.708459 22.7948 0.491511 23.0206 0.500022 23.2967L1.49998 23.2873ZM0.500022 23.2967L1.21976 46.6374L2.21972 46.6281L1.49998 23.2873L0.500022 23.2967Z" fill="white"/>
<path d="M56.1992 23.2873C56.1907 23.0113 55.9599 22.7897 55.6838 22.7922C55.4077 22.7948 55.1907 23.0206 55.1992 23.2967L56.1992 23.2873ZM55.1992 23.2967L55.919 46.6374L56.9189 46.6281L56.1992 23.2873L55.1992 23.2967Z" fill="white"/>
<path d="M1.3772 45.5431C1.10107 45.5411 0.871856 45.7633 0.865247 46.0394C0.858639 46.3154 1.07713 46.5408 1.35327 46.5428L1.3772 45.5431ZM1.35327 46.5428L56.0534 46.9384L56.0773 45.9387L1.3772 45.5431L1.35327 46.5428Z" fill="white"/>
<path d="M1.35938 22.5977C1.08323 22.5977 0.859375 22.8215 0.859375 23.0977C0.859375 23.3738 1.08323 23.5977 1.35938 23.5977V22.5977ZM1.35938 23.5977H15.0344V22.5977H1.35938V23.5977Z" fill="white"/>
<path d="M35.3152 33.7318C35.6314 33.8081 35.9937 33.7305 36.1245 33.5584C36.2553 33.3863 36.105 33.1849 35.7888 33.1085L35.3152 33.7318ZM28.0317 31.6045L27.4324 31.6826L27.5104 31.8475L27.7949 31.9162L28.0317 31.6045ZM26.3942 28.1438L25.782 28.0831L25.7623 28.1529L25.7949 28.2219L26.3942 28.1438ZM27.1601 25.4386L26.7268 25.189L26.5795 25.2662L26.5479 25.3779L27.1601 25.4386ZM32.8783 22.4401L32.8283 22.0997L32.6051 22.1066L32.4451 22.1905L32.8783 22.4401ZM37.5447 22.2968L37.8164 21.9943L37.6639 21.9512L37.4947 21.9564L37.5447 22.2968ZM41.8282 23.5062L42.271 23.274L42.1962 23.2308L42.0999 23.2036L41.8282 23.5062ZM44.9681 25.3152L45.5378 25.1892L45.4921 25.1298L45.4109 25.083L44.9681 25.3152ZM35.7888 33.1085L28.2685 31.2929L27.7949 31.9162L35.3152 33.7318L35.7888 33.1085ZM28.631 31.5264L26.9935 28.0658L25.7949 28.2219L27.4324 31.6826L28.631 31.5264ZM27.0064 28.2046L27.7723 25.4993L26.5479 25.3779L25.782 28.0831L27.0064 28.2046ZM27.5933 25.6882L33.3116 22.6897L32.4451 22.1905L26.7268 25.189L27.5933 25.6882ZM32.9283 22.7805L37.5948 22.6372L37.4947 21.9564L32.8283 22.0997L32.9283 22.7805ZM37.2731 22.5993L41.5565 23.8087L42.0999 23.2036L37.8164 21.9943L37.2731 22.5993ZM41.3854 23.7384L44.5252 25.5474L45.4109 25.083L42.271 23.274L41.3854 23.7384ZM44.3984 25.4412L46.1329 27.6991L47.2723 27.4472L45.5378 25.1892L44.3984 25.4412Z" fill="white"/>
<path d="M45.5935 26.7163C45.3452 26.5953 44.9537 26.6152 44.719 26.7607C44.4843 26.9062 44.4953 27.1222 44.7435 27.2432L45.5935 26.7163ZM46.132 26.9787L45.5935 26.7163L44.7435 27.2432L45.2821 27.5056L46.132 26.9787Z" fill="#282551"/>
<path d="M46.336 27.3348C46.215 27.583 46.3384 27.8169 46.6116 27.8571C46.8848 27.8973 47.2044 27.7287 47.3253 27.4805L46.336 27.3348ZM47.5854 24.7714L46.336 27.3348L47.3253 27.4805L48.5747 24.9171L47.5854 24.7714Z" fill="white"/>
<path d="M41.4144 26.6766C41.139 26.6557 40.8612 26.8558 40.7938 27.1236C40.7265 27.3914 40.8951 27.6255 41.1704 27.6464L41.4144 26.6766ZM46.5556 27.0674L41.4144 26.6766L41.1704 27.6464L46.3116 28.0371L46.5556 27.0674Z" fill="white"/>
<path d="M35.9939 30.7853C35.9639 30.5108 35.7158 30.2956 35.4398 30.3047C35.1638 30.3138 34.9644 30.5437 34.9944 30.8183L35.9939 30.7853ZM34.9944 30.8183L35.2385 33.0521L36.238 33.0191L35.9939 30.7853L34.9944 30.8183Z" fill="white"/>
<path d="M32.2651 34.1294C32.0101 34.2355 31.9846 34.453 32.208 34.6152C32.4315 34.7775 32.8193 34.823 33.0743 34.7169L32.2651 34.1294ZM35.1911 32.9118L32.2651 34.1294L33.0743 34.7169L36.0003 33.4993L35.1911 32.9118Z" fill="white"/>
</svg>
