<svg width="597" height="71" viewBox="0 0 597 71" fill="none" xmlns="http://www.w3.org/2000/svg">
<rect x="0.5" y="7.5" width="510" height="55" rx="27.5" fill="white" fill-opacity="0.9" stroke="black"/>
<path d="M558.5 1.5H561.5C580.278 1.5 595.5 16.7223 595.5 35.5C595.5 54.2777 580.278 69.5 561.5 69.5H558.5C539.722 69.5 524.5 54.2777 524.5 35.5C524.5 16.7223 539.722 1.5 558.5 1.5Z" fill="#008EC5" stroke="#F5F5F5" stroke-width="3"/>
<path d="M564.8 40.15L576 51M556 43.25C559.183 43.25 562.235 42.0252 564.485 39.8451C566.736 37.665 568 34.7081 568 31.625C568 28.5419 566.736 25.585 564.485 23.4049C562.235 21.2248 559.183 20 556 20C552.817 20 549.765 21.2248 547.515 23.4049C545.264 25.585 544 28.5419 544 31.625C544 34.7081 545.264 37.665 547.515 39.8451C549.765 42.0252 552.817 43.25 556 43.25Z" stroke="white" stroke-width="1.5"/>
</svg>
